<svg width="195" height="211" viewBox="0 0 195 211" fill="none" xmlns="http://www.w3.org/2000/svg">
<g filter="url(#filter0_d_437_370)">
<mask id="mask0_437_370" style="mask-type:luminance" maskUnits="userSpaceOnUse" x="0" y="0" width="186" height="202">
<path d="M0 0H185.282V202H0V0Z" fill="white"/>
</mask>
<g mask="url(#mask0_437_370)">
<path fill-rule="evenodd" clip-rule="evenodd" d="M146.917 100.988C146.917 111.249 146.005 121.256 144.251 130.74C136.919 136.997 128.707 142.793 119.828 147.922C118.39 148.755 116.92 149.576 115.46 150.363C114.238 151.021 113.781 152.543 114.439 153.765C115.094 154.987 116.619 155.445 117.841 154.784C119.345 153.975 120.859 153.129 122.337 152.277C129.54 148.116 136.317 143.526 142.568 138.607C139.952 149.388 136.189 159.327 131.395 167.965C110.76 167.623 87.4843 160.536 65.6463 147.928C56.7638 142.793 48.5581 136.997 41.2234 130.74C39.472 121.256 38.554 111.249 38.554 100.988C38.554 99.3207 38.5791 97.6383 38.6292 95.9808C38.6668 94.596 37.5796 93.4398 36.1948 93.3991C34.8005 93.3552 33.6506 94.4487 33.6099 95.8336C33.5598 97.5443 33.5347 99.2769 33.5347 100.988C33.5347 109.306 34.1206 117.474 35.2548 125.348C27.2277 117.69 20.5008 109.466 15.422 100.988C26.0371 83.2853 43.8114 66.6609 65.6463 54.0531C74.5288 48.921 83.6493 44.7101 92.7355 41.4861C101.822 44.7101 110.942 48.921 119.828 54.0531C121.272 54.8865 122.716 55.7481 124.126 56.616C125.304 57.3492 126.849 56.9795 127.579 55.7983C128.306 54.6171 127.943 53.0693 126.761 52.3424C125.314 51.4495 123.826 50.5565 122.337 49.698C115.137 45.5435 107.775 41.9623 100.39 39.0078C111.033 35.884 121.513 34.1733 131.395 34.0104C141.412 52.0573 146.917 75.7658 146.917 100.988ZM5.39595 50.544C-2.47763 64.1826 -0.967459 82.0571 9.6163 100.988C-0.967459 119.918 -2.47763 137.793 5.39595 151.431C11.1985 161.482 21.6852 168.372 35.731 171.349C35.9065 171.386 36.082 171.408 36.2543 171.408C37.4135 171.408 38.4537 170.593 38.7044 169.415C38.9958 168.059 38.1279 166.721 36.7712 166.439C24.1603 163.763 14.8142 157.707 9.74162 148.918C3.14009 137.473 4.18656 122.349 12.621 106.007C18.7776 115.648 26.9332 124.925 36.6271 133.394C39.4407 147.681 44.1247 160.79 50.4725 171.803C61.6515 191.194 76.6562 201.875 92.7355 201.875C108.483 201.875 123.196 191.626 134.293 172.993C155.975 172.696 172.204 165.07 180.075 151.431C185.881 141.38 186.601 128.847 182.155 115.19C181.729 113.874 180.31 113.147 178.994 113.58C177.675 114.012 176.951 115.425 177.38 116.744C181.369 129.01 180.802 140.133 175.729 148.918C169.121 160.367 155.508 167.019 137.141 167.886C142.408 157.732 146.359 146.023 148.85 133.394C159.81 123.809 168.814 113.197 175.175 102.194C186.379 82.8154 188.121 64.4739 180.081 50.544C172.204 36.9054 155.981 29.2793 134.293 28.9817C123.196 10.3489 108.483 0.103516 92.7355 0.103516C81.1303 0.103516 69.923 5.74631 60.3231 16.4209C59.3957 17.4549 59.4803 19.0402 60.5142 19.9708C61.5419 20.8951 63.1272 20.8105 64.0578 19.7828C72.6771 10.1954 82.5966 5.12594 92.7355 5.12594C105.951 5.12594 118.518 13.5948 128.45 29.0757C117.024 29.5864 104.914 32.0177 92.7355 36.1754C78.959 31.4694 65.2672 28.9786 52.556 28.9692C52.5372 28.9692 52.5153 28.9692 52.4934 28.9692C30.1509 28.9692 13.4262 36.6297 5.39595 50.544ZM63.1366 152.277C55.9335 148.116 49.1566 143.526 42.9028 138.607C45.6568 149.943 49.6704 160.351 54.8244 169.293C65.0667 187.061 78.5298 196.849 92.7355 196.849C105.951 196.849 118.518 188.38 128.45 172.903C107.706 171.972 84.7021 164.731 63.1366 152.277ZM85.0843 39.0078C73.8927 35.7273 62.8766 33.9979 52.556 33.9947C52.5372 33.9947 52.5153 33.9947 52.4934 33.9947C32.0214 33.9947 16.8413 40.7623 9.74162 53.0568C3.13382 64.5021 4.18656 79.6258 12.621 95.9683C23.8 78.4666 41.5712 62.1585 63.1366 49.698C70.3397 45.5466 77.6995 41.9623 85.0843 39.0078ZM151.939 100.988C151.939 109.306 151.357 117.474 150.222 125.348C158.66 117.296 165.662 108.614 170.829 99.6779C181.093 81.9193 182.835 65.3637 175.729 53.0568C169.125 41.6114 155.508 34.9566 137.141 34.0887C146.707 52.5304 151.939 76.0854 151.939 100.988Z" fill="url(#paint0_linear_437_370)"/>
</g>
<path fill-rule="evenodd" clip-rule="evenodd" d="M125.289 100.988C125.289 85.9798 115.081 73.3188 101.252 69.5621V79.5506L112.139 85.1527C112.979 85.5819 113.502 86.4466 113.502 87.3835V100.602C116.325 101.633 118.346 104.337 118.346 107.511C118.346 111.571 115.05 114.871 110.993 114.871C106.935 114.871 103.636 111.571 103.636 107.511C103.636 104.337 105.66 101.633 108.48 100.602V88.9187L97.5953 83.3198C96.7587 82.8874 96.2292 82.0258 96.2292 81.0858V68.6159C95.0825 68.4906 93.917 68.4248 92.7358 68.4248C91.5546 68.4248 90.3922 68.4906 89.2423 68.6159V81.0858C89.2423 82.0258 88.7128 82.8874 87.8763 83.3198L76.9917 88.9187V100.602C79.8147 101.633 81.8387 104.337 81.8387 107.511C81.8387 111.571 78.5364 114.871 74.4821 114.871C70.4278 114.871 67.1255 111.571 67.1255 107.511C67.1255 104.337 69.1495 101.633 71.9724 100.602V87.3835C71.9724 86.4466 72.4988 85.5819 73.3353 85.1527L84.2199 79.5506V69.5621C70.3902 73.3188 60.1855 85.9798 60.1855 100.988C60.1855 113.683 67.492 124.699 78.1134 130.063V121.901C78.1134 120.513 79.2413 119.389 80.6262 119.389C82.011 119.389 83.1358 120.513 83.1358 121.901V132.103C86.175 133.04 89.3958 133.55 92.7358 133.55C96.0788 133.55 99.3028 133.04 102.339 132.103V127.713L91.4512 122.111C90.6146 121.685 90.0883 120.82 90.0883 119.88V102.172C87.3374 101.107 85.3823 98.4372 85.3823 95.3166C85.3823 91.2592 88.6815 87.9568 92.7358 87.9568C96.7963 87.9568 100.092 91.2592 100.092 95.3166C100.092 98.5437 98.0057 101.285 95.1076 102.272V118.348L105.998 123.944C106.835 124.376 107.361 125.238 107.361 126.175V130.063C117.983 124.699 125.289 113.683 125.289 100.988Z" fill="url(#paint1_linear_437_370)"/>
<path fill-rule="evenodd" clip-rule="evenodd" d="M113.323 107.511C113.323 106.226 112.28 105.18 110.996 105.18C109.705 105.18 108.658 106.226 108.658 107.511C108.658 108.798 109.705 109.845 110.996 109.845C112.28 109.845 113.323 108.798 113.323 107.511Z" fill="#A8E41D"/>
<path fill-rule="evenodd" clip-rule="evenodd" d="M92.7354 97.6569C94.0231 97.6569 95.0695 96.6104 95.0695 95.3195C95.0695 94.0318 94.0231 92.9854 92.7354 92.9854C91.4508 92.9854 90.4043 94.0318 90.4043 95.3195C90.4043 96.6041 91.4508 97.6569 92.7354 97.6569Z" fill="#A8E41D"/>
<path fill-rule="evenodd" clip-rule="evenodd" d="M76.8149 107.511C76.8149 106.226 75.7684 105.18 74.4807 105.18C73.193 105.18 72.1465 106.226 72.1465 107.511C72.1465 108.798 73.193 109.845 74.4807 109.845C75.7684 109.845 76.8149 108.798 76.8149 107.511Z" fill="#A8E41D"/>
</g>
<defs>
<filter id="filter0_d_437_370" x="0.417969" y="0.103516" width="193.641" height="210.771" filterUnits="userSpaceOnUse" color-interpolation-filters="sRGB">
<feFlood flood-opacity="0" result="BackgroundImageFix"/>
<feColorMatrix in="SourceAlpha" type="matrix" values="0 0 0 0 0 0 0 0 0 0 0 0 0 0 0 0 0 0 127 0" result="hardAlpha"/>
<feOffset dx="5" dy="5"/>
<feGaussianBlur stdDeviation="2"/>
<feComposite in2="hardAlpha" operator="out"/>
<feColorMatrix type="matrix" values="0 0 0 0 0 0 0 0 0 0 0 0 0 0 0 0 0 0 0.2 0"/>
<feBlend mode="normal" in2="BackgroundImageFix" result="effect1_dropShadow_437_370"/>
<feBlend mode="normal" in="SourceGraphic" in2="effect1_dropShadow_437_370" result="shape"/>
</filter>
<linearGradient id="paint0_linear_437_370" x1="92.7387" y1="201.875" x2="92.7387" y2="0.103516" gradientUnits="userSpaceOnUse">
<stop stop-color="#94C228"/>
<stop offset="1" stop-color="white" stop-opacity="0.8"/>
</linearGradient>
<linearGradient id="paint1_linear_437_370" x1="92.7373" y1="68.4248" x2="92.7373" y2="133.55" gradientUnits="userSpaceOnUse">
<stop stop-color="#A6E611"/>
<stop offset="1" stop-color="white" stop-opacity="0.61"/>
</linearGradient>
</defs>
</svg>
