<svg width="194" height="210" viewBox="0 0 194 210" fill="none" xmlns="http://www.w3.org/2000/svg">
<g filter="url(#filter0_d_437_264)">
<mask id="path-1-inside-1_437_264" fill="white">
<path fill-rule="evenodd" clip-rule="evenodd" d="M84.5753 103.653H88.9104V98.3636L51.7862 84.4C50.4363 83.9976 49.4486 82.7464 49.4486 81.2612V73.3996L52.7154 75.2872L55.9823 73.3996V79.004L88.9104 91.3909V46.1052L92.1772 47.9929L95.444 46.1052V91.3909L128.376 79.004V73.3996L131.643 75.2872L134.909 73.3996L134.898 81.2612C134.898 82.5818 134.097 83.822 132.788 84.3158L95.444 98.3636V103.653H99.7828C100.679 103.653 101.414 104.389 101.414 105.289V108.812H82.9364V105.289C82.9401 104.389 83.6754 103.653 84.5753 103.653ZM49.4486 65.8416V49.3903L35.2289 41.1702V57.6178L49.4486 65.8416ZM38.4848 35.5182L52.7118 27.2907L66.9388 35.5182L52.7118 43.7456L38.4848 35.5182ZM70.202 41.1738L55.9823 49.394V65.8452L70.202 57.6214V41.1738ZM128.376 65.8416V47.1295L114.156 38.9057V57.6178L128.376 65.8416ZM119.369 34.3878L131.643 27.2944L143.916 34.3878L131.646 41.4848L119.369 34.3878ZM149.133 38.9057L134.913 47.1295V65.8416L149.133 57.6178V38.9057ZM77.9502 8.22745L92.1772 0L106.404 8.22745L92.1772 16.4512L77.9502 8.22745ZM109.664 13.8795L95.444 22.0996V38.5509L109.664 30.3271V13.8795ZM88.9104 38.5509V22.0996L74.6907 13.8795V30.3271L88.9104 38.5509ZM78.1953 115.353C73.2457 115.353 68.9911 113.154 66.1267 109.108C55.0458 93.4835 32.7376 90.2422 20.7678 106.95C10.8575 120.785 -2.23545 166.382 0.325343 182.76C3.02515 200.038 22.242 207.578 36.8385 197.415C46.5695 190.64 54.3434 180.861 62.6513 171.891C65.556 168.756 69.2362 167.146 73.5091 167.15H110.849C115.122 167.15 118.802 168.756 121.707 171.891C130.011 180.861 137.789 190.64 147.52 197.415C162.112 207.574 181.326 200.038 184.025 182.76C186.586 166.382 173.493 120.785 163.583 106.953C151.613 90.2496 129.305 93.4871 118.228 109.112C115.36 113.154 111.105 115.356 106.155 115.356H78.1953V115.353ZM142.047 155.59C138.897 155.59 136.351 153.033 136.351 149.883C136.351 146.733 138.901 144.18 142.047 144.18C145.197 144.18 147.743 146.737 147.743 149.883C147.743 153.033 145.197 155.59 142.047 155.59ZM42.3113 155.59C39.1615 155.59 36.6117 153.033 36.6117 149.883C36.6117 146.733 39.1652 144.18 42.3113 144.18C45.4574 144.18 48.0073 146.737 48.0073 149.883C48.0073 153.033 45.4574 155.59 42.3113 155.59ZM62.4245 135.447C62.4245 138.597 59.8747 141.151 56.7286 141.151C53.5788 141.151 51.0326 138.594 51.0326 135.447C51.0326 132.294 53.5861 129.741 56.7286 129.741C59.8747 129.741 62.4245 132.294 62.4245 135.447ZM22.1945 135.447C22.1945 132.294 24.748 129.741 27.8904 129.741C31.0365 129.741 33.5863 132.298 33.5863 135.447C33.5863 138.597 31.0365 141.151 27.8904 141.151C24.748 141.151 22.1945 138.594 22.1945 135.447ZM42.3113 115.305C45.4574 115.305 48.0073 117.859 48.0073 121.008C48.0073 124.162 45.4538 126.712 42.3113 126.712C39.1615 126.712 36.6117 124.158 36.6117 121.008C36.6117 117.859 39.1615 115.305 42.3113 115.305ZM162.164 135.447C162.164 138.597 159.61 141.151 156.464 141.151C153.322 141.151 150.768 138.594 150.768 135.447C150.768 132.294 153.322 129.741 156.464 129.741C159.61 129.741 162.164 132.294 162.164 135.447ZM121.93 135.447C121.93 132.294 124.483 129.741 127.626 129.741C130.776 129.741 133.325 132.298 133.325 135.447C133.325 138.597 130.772 141.151 127.626 141.151C124.483 141.151 121.93 138.594 121.93 135.447ZM142.047 115.305C145.197 115.305 147.743 117.859 147.743 121.008C147.743 124.162 145.189 126.712 142.047 126.712C138.897 126.712 136.351 124.158 136.351 121.008C136.351 117.859 138.897 115.305 142.047 115.305ZM73.9261 144.18H110.432C111.167 144.18 111.767 144.783 111.767 145.519V155.359C111.767 156.095 111.167 156.698 110.432 156.698H73.9261C73.1908 156.698 72.5908 156.095 72.5908 155.359V145.519C72.5908 144.783 73.1908 144.18 73.9261 144.18Z"/>
</mask>
<path fill-rule="evenodd" clip-rule="evenodd" d="M84.5753 103.653H88.9104V98.3636L51.7862 84.4C50.4363 83.9976 49.4486 82.7464 49.4486 81.2612V73.3996L52.7154 75.2872L55.9823 73.3996V79.004L88.9104 91.3909V46.1052L92.1772 47.9929L95.444 46.1052V91.3909L128.376 79.004V73.3996L131.643 75.2872L134.909 73.3996L134.898 81.2612C134.898 82.5818 134.097 83.822 132.788 84.3158L95.444 98.3636V103.653H99.7828C100.679 103.653 101.414 104.389 101.414 105.289V108.812H82.9364V105.289C82.9401 104.389 83.6754 103.653 84.5753 103.653ZM49.4486 65.8416V49.3903L35.2289 41.1702V57.6178L49.4486 65.8416ZM38.4848 35.5182L52.7118 27.2907L66.9388 35.5182L52.7118 43.7456L38.4848 35.5182ZM70.202 41.1738L55.9823 49.394V65.8452L70.202 57.6214V41.1738ZM128.376 65.8416V47.1295L114.156 38.9057V57.6178L128.376 65.8416ZM119.369 34.3878L131.643 27.2944L143.916 34.3878L131.646 41.4848L119.369 34.3878ZM149.133 38.9057L134.913 47.1295V65.8416L149.133 57.6178V38.9057ZM77.9502 8.22745L92.1772 0L106.404 8.22745L92.1772 16.4512L77.9502 8.22745ZM109.664 13.8795L95.444 22.0996V38.5509L109.664 30.3271V13.8795ZM88.9104 38.5509V22.0996L74.6907 13.8795V30.3271L88.9104 38.5509ZM78.1953 115.353C73.2457 115.353 68.9911 113.154 66.1267 109.108C55.0458 93.4835 32.7376 90.2422 20.7678 106.95C10.8575 120.785 -2.23545 166.382 0.325343 182.76C3.02515 200.038 22.242 207.578 36.8385 197.415C46.5695 190.64 54.3434 180.861 62.6513 171.891C65.556 168.756 69.2362 167.146 73.5091 167.15H110.849C115.122 167.15 118.802 168.756 121.707 171.891C130.011 180.861 137.789 190.64 147.52 197.415C162.112 207.574 181.326 200.038 184.025 182.76C186.586 166.382 173.493 120.785 163.583 106.953C151.613 90.2496 129.305 93.4871 118.228 109.112C115.36 113.154 111.105 115.356 106.155 115.356H78.1953V115.353ZM142.047 155.59C138.897 155.59 136.351 153.033 136.351 149.883C136.351 146.733 138.901 144.18 142.047 144.18C145.197 144.18 147.743 146.737 147.743 149.883C147.743 153.033 145.197 155.59 142.047 155.59ZM42.3113 155.59C39.1615 155.59 36.6117 153.033 36.6117 149.883C36.6117 146.733 39.1652 144.18 42.3113 144.18C45.4574 144.18 48.0073 146.737 48.0073 149.883C48.0073 153.033 45.4574 155.59 42.3113 155.59ZM62.4245 135.447C62.4245 138.597 59.8747 141.151 56.7286 141.151C53.5788 141.151 51.0326 138.594 51.0326 135.447C51.0326 132.294 53.5861 129.741 56.7286 129.741C59.8747 129.741 62.4245 132.294 62.4245 135.447ZM22.1945 135.447C22.1945 132.294 24.748 129.741 27.8904 129.741C31.0365 129.741 33.5863 132.298 33.5863 135.447C33.5863 138.597 31.0365 141.151 27.8904 141.151C24.748 141.151 22.1945 138.594 22.1945 135.447ZM42.3113 115.305C45.4574 115.305 48.0073 117.859 48.0073 121.008C48.0073 124.162 45.4538 126.712 42.3113 126.712C39.1615 126.712 36.6117 124.158 36.6117 121.008C36.6117 117.859 39.1615 115.305 42.3113 115.305ZM162.164 135.447C162.164 138.597 159.61 141.151 156.464 141.151C153.322 141.151 150.768 138.594 150.768 135.447C150.768 132.294 153.322 129.741 156.464 129.741C159.61 129.741 162.164 132.294 162.164 135.447ZM121.93 135.447C121.93 132.294 124.483 129.741 127.626 129.741C130.776 129.741 133.325 132.298 133.325 135.447C133.325 138.597 130.772 141.151 127.626 141.151C124.483 141.151 121.93 138.594 121.93 135.447ZM142.047 115.305C145.197 115.305 147.743 117.859 147.743 121.008C147.743 124.162 145.189 126.712 142.047 126.712C138.897 126.712 136.351 124.158 136.351 121.008C136.351 117.859 138.897 115.305 142.047 115.305ZM73.9261 144.18H110.432C111.167 144.18 111.767 144.783 111.767 145.519V155.359C111.767 156.095 111.167 156.698 110.432 156.698H73.9261C73.1908 156.698 72.5908 156.095 72.5908 155.359V145.519C72.5908 144.783 73.1908 144.18 73.9261 144.18Z" fill="url(#paint0_linear_437_264)" stroke="black" stroke-opacity="0.5" stroke-width="2" mask="url(#path-1-inside-1_437_264)"/>
</g>
<defs>
<filter id="filter0_d_437_264" x="0" y="0" width="193.352" height="210" filterUnits="userSpaceOnUse" color-interpolation-filters="sRGB">
<feFlood flood-opacity="0" result="BackgroundImageFix"/>
<feColorMatrix in="SourceAlpha" type="matrix" values="0 0 0 0 0 0 0 0 0 0 0 0 0 0 0 0 0 0 127 0" result="hardAlpha"/>
<feOffset dx="5" dy="4"/>
<feGaussianBlur stdDeviation="2"/>
<feComposite in2="hardAlpha" operator="out"/>
<feColorMatrix type="matrix" values="0 0 0 0 0 0 0 0 0 0 0 0 0 0 0 0 0 0 0.25 0"/>
<feBlend mode="normal" in2="BackgroundImageFix" result="effect1_dropShadow_437_264"/>
<feBlend mode="normal" in="SourceGraphic" in2="effect1_dropShadow_437_264" result="shape"/>
</filter>
<linearGradient id="paint0_linear_437_264" x1="92.1754" y1="202" x2="92.1754" y2="0" gradientUnits="userSpaceOnUse">
<stop stop-color="#AAED0D" stop-opacity="0.46"/>
<stop offset="0.450693" stop-color="#BAF039" stop-opacity="0.8"/>
<stop offset="0.599958" stop-color="#C8E87C"/>
<stop offset="0.601764" stop-color="white" stop-opacity="0.8"/>
<stop offset="0.726376" stop-color="#A1D821"/>
<stop offset="1" stop-color="white"/>
<stop offset="1" stop-color="#B2DF48"/>
</linearGradient>
</defs>
</svg>
