<svg width="205" height="65" viewBox="0 0 205 65" fill="none" xmlns="http://www.w3.org/2000/svg">
<g filter="url(#filter0_b_437_221)">
<path d="M24 0C26.2125 0 28 1.7875 28 4V8.3375C31.8625 8.9875 35.4 10.55 38.4 12.8125C40.1625 14.1375 40.525 16.65 39.2 18.4125C37.875 20.175 35.3625 20.5375 33.6 19.2125C30.925 17.1875 27.6125 16 24 16C15.1625 16 8 23.1625 8 32C8 40.8375 15.1625 48 24 48C27.6125 48 30.925 46.8125 33.6 44.8C35.3625 43.475 37.875 43.825 39.2 45.6C40.525 47.375 40.175 49.875 38.4 51.2C35.4 53.45 31.85 55.025 28 55.675V60.0125C28 62.225 26.2125 64.0125 24 64.0125C21.7875 64.0125 20 62.225 20 60.0125V55.675C8.65 53.7625 0 43.8875 0 32C0 20.1125 8.65 10.2375 20 8.3375V4C20 1.7875 21.7875 0 24 0Z" fill="url(#paint0_linear_437_221)"/>
<path d="M31.5 32C31.5 36.1421 28.1421 39.5 24 39.5C19.8579 39.5 16.5 36.1421 16.5 32C16.5 27.8579 19.8579 24.5 24 24.5C28.1421 24.5 31.5 27.8579 31.5 32Z" stroke="url(#paint1_linear_437_221)" stroke-width="5"/>
</g>
<path d="M48.7427 37.5225C48.925 37.5794 49.1073 37.6193 49.2896 37.6421C49.4718 37.6535 49.6541 37.6592 49.8364 37.6592C50.2922 37.6592 50.7308 37.5965 51.1523 37.4712C51.5739 37.3459 51.967 37.1693 52.3315 36.9414C52.7075 36.7021 53.0379 36.4173 53.3228 36.0869C53.619 35.7451 53.8582 35.3691 54.0405 34.959L57.4585 38.394C57.0256 39.0093 56.5243 39.5618 55.9546 40.0518C55.3963 40.5417 54.7868 40.9575 54.126 41.2993C53.4766 41.6411 52.7873 41.8975 52.0581 42.0684C51.3403 42.2507 50.5998 42.3418 49.8364 42.3418C48.549 42.3418 47.3356 42.1025 46.1963 41.624C45.0684 41.1455 44.0771 40.479 43.2227 39.6245C42.3796 38.77 41.7131 37.756 41.2231 36.5825C40.7332 35.3976 40.4883 34.0988 40.4883 32.686C40.4883 31.2391 40.7332 29.9175 41.2231 28.7212C41.7131 27.5249 42.3796 26.5052 43.2227 25.6621C44.0771 24.819 45.0684 24.1639 46.1963 23.6968C47.3356 23.2297 48.549 22.9961 49.8364 22.9961C50.5998 22.9961 51.346 23.0872 52.0752 23.2695C52.8044 23.4518 53.4937 23.7139 54.1431 24.0557C54.8039 24.3975 55.4191 24.819 55.9888 25.3203C56.5584 25.8102 57.0597 26.3628 57.4927 26.978L48.7427 37.5225ZM51.1353 27.9009C50.9188 27.8211 50.7023 27.7699 50.4858 27.7471C50.2808 27.7243 50.0643 27.7129 49.8364 27.7129C49.1984 27.7129 48.5946 27.8325 48.0249 28.0718C47.4666 28.2996 46.9767 28.63 46.5552 29.063C46.145 29.4959 45.8203 30.02 45.5811 30.6353C45.3418 31.2391 45.2222 31.9227 45.2222 32.686C45.2222 32.8569 45.2279 33.0506 45.2393 33.2671C45.262 33.4836 45.2905 33.7057 45.3247 33.9336C45.3703 34.1501 45.4215 34.3608 45.4785 34.5659C45.5355 34.771 45.6095 34.9533 45.7007 35.1128L51.1353 27.9009ZM64.5508 42H59.8511V16.4165H64.5508V42ZM75.4028 37.5225C75.5851 37.5794 75.7674 37.6193 75.9497 37.6421C76.132 37.6535 76.3143 37.6592 76.4966 37.6592C76.9523 37.6592 77.391 37.5965 77.8125 37.4712C78.234 37.3459 78.6271 37.1693 78.9917 36.9414C79.3677 36.7021 79.6981 36.4173 79.9829 36.0869C80.2791 35.7451 80.5184 35.3691 80.7007 34.959L84.1187 38.394C83.6857 39.0093 83.1844 39.5618 82.6147 40.0518C82.0565 40.5417 81.4469 40.9575 80.7861 41.2993C80.1367 41.6411 79.4474 41.8975 78.7183 42.0684C78.0005 42.2507 77.2599 42.3418 76.4966 42.3418C75.2091 42.3418 73.9958 42.1025 72.8564 41.624C71.7285 41.1455 70.7373 40.479 69.8828 39.6245C69.0397 38.77 68.3732 37.756 67.8833 36.5825C67.3934 35.3976 67.1484 34.0988 67.1484 32.686C67.1484 31.2391 67.3934 29.9175 67.8833 28.7212C68.3732 27.5249 69.0397 26.5052 69.8828 25.6621C70.7373 24.819 71.7285 24.1639 72.8564 23.6968C73.9958 23.2297 75.2091 22.9961 76.4966 22.9961C77.2599 22.9961 78.0062 23.0872 78.7354 23.2695C79.4645 23.4518 80.1538 23.7139 80.8032 24.0557C81.464 24.3975 82.0793 24.819 82.6489 25.3203C83.2186 25.8102 83.7199 26.3628 84.1528 26.978L75.4028 37.5225ZM77.7954 27.9009C77.5789 27.8211 77.3625 27.7699 77.146 27.7471C76.9409 27.7243 76.7244 27.7129 76.4966 27.7129C75.8586 27.7129 75.2547 27.8325 74.6851 28.0718C74.1268 28.2996 73.6369 28.63 73.2153 29.063C72.8052 29.4959 72.4805 30.02 72.2412 30.6353C72.002 31.2391 71.8823 31.9227 71.8823 32.686C71.8823 32.8569 71.888 33.0506 71.8994 33.2671C71.9222 33.4836 71.9507 33.7057 71.9849 33.9336C72.0304 34.1501 72.0817 34.3608 72.1387 34.5659C72.1956 34.771 72.2697 34.9533 72.3608 35.1128L77.7954 27.9009ZM96.5601 42H85.896V37.3516H96.5601C96.8791 37.3516 97.1525 37.2376 97.3804 37.0098C97.6082 36.7819 97.7222 36.5085 97.7222 36.1895C97.7222 35.859 97.6082 35.6426 97.3804 35.54C97.1525 35.4375 96.8791 35.3862 96.5601 35.3862H91.7065C90.8976 35.3862 90.14 35.2324 89.4336 34.9248C88.7272 34.6172 88.112 34.2013 87.5879 33.6772C87.0638 33.1418 86.6479 32.5208 86.3403 31.8145C86.0441 31.1081 85.896 30.3504 85.896 29.5415C85.896 28.7326 86.0441 27.9749 86.3403 27.2686C86.6479 26.5622 87.0638 25.9469 87.5879 25.4229C88.112 24.8988 88.7272 24.4886 89.4336 24.1924C90.14 23.8848 90.8976 23.731 91.7065 23.731H101.157V28.3794H91.7065C91.3875 28.3794 91.1141 28.4933 90.8862 28.7212C90.6584 28.9491 90.5444 29.2225 90.5444 29.5415C90.5444 29.8719 90.6584 30.1567 90.8862 30.396C91.1141 30.6239 91.3875 30.7378 91.7065 30.7378H96.5601C97.3576 30.7378 98.1095 30.8745 98.8159 31.1479C99.5223 31.41 100.138 31.7803 100.662 32.2588C101.186 32.7373 101.602 33.3127 101.909 33.9849C102.217 34.6571 102.371 35.3919 102.371 36.1895C102.371 36.9984 102.217 37.756 101.909 38.4624C101.602 39.1574 101.186 39.7726 100.662 40.3081C100.138 40.8322 99.5223 41.248 98.8159 41.5557C98.1095 41.8519 97.3576 42 96.5601 42ZM120.862 27.3369L117.444 30.772C117.273 30.2935 117.039 29.8662 116.743 29.4902C116.447 29.1029 116.111 28.7782 115.735 28.5161C115.37 28.2541 114.972 28.0547 114.539 27.918C114.106 27.7812 113.661 27.7129 113.206 27.7129C112.568 27.7129 111.964 27.8439 111.394 28.106C110.836 28.368 110.346 28.7383 109.924 29.2168C109.514 29.6839 109.189 30.2422 108.95 30.8916C108.711 31.541 108.591 32.2588 108.591 33.0449C108.591 33.6829 108.711 34.2811 108.95 34.8394C109.189 35.3976 109.514 35.8875 109.924 36.3091C110.346 36.7306 110.836 37.061 111.394 37.3003C111.964 37.5396 112.568 37.6592 113.206 37.6592C113.661 37.6592 114.1 37.5965 114.521 37.4712C114.943 37.3459 115.336 37.1693 115.701 36.9414C116.077 36.7021 116.407 36.4173 116.692 36.0869C116.988 35.7451 117.227 35.3691 117.41 34.959L120.828 38.394C120.395 39.0093 119.893 39.5618 119.324 40.0518C118.765 40.5417 118.156 40.9575 117.495 41.2993C116.846 41.6411 116.156 41.8975 115.427 42.0684C114.709 42.2507 113.969 42.3418 113.206 42.3418C111.918 42.3418 110.705 42.1025 109.565 41.624C108.438 41.1341 107.446 40.4676 106.592 39.6245C105.749 38.7814 105.082 37.7959 104.592 36.668C104.102 35.54 103.857 34.3324 103.857 33.0449C103.857 31.6436 104.102 30.3333 104.592 29.1143C105.082 27.8952 105.749 26.8356 106.592 25.9355C107.446 25.0241 108.438 24.3063 109.565 23.7822C110.705 23.2581 111.918 22.9961 113.206 22.9961C113.969 22.9961 114.715 23.0929 115.444 23.2866C116.185 23.4803 116.886 23.7651 117.546 24.1411C118.219 24.5057 118.834 24.9557 119.392 25.4912C119.962 26.0267 120.452 26.6419 120.862 27.3369ZM127.817 42H123.152V16.4165H127.817V24.5C128.376 24.0785 128.951 23.7822 129.543 23.6113C130.136 23.429 130.74 23.3379 131.355 23.3379C132.483 23.3379 133.542 23.5544 134.534 23.9873C135.525 24.4089 136.385 24.9956 137.114 25.7476C137.855 26.4881 138.436 27.3597 138.857 28.3623C139.29 29.3535 139.507 30.4131 139.507 31.541V42H134.807V31.541H134.841C134.841 31.0625 134.75 30.6125 134.568 30.1909C134.386 29.758 134.135 29.382 133.816 29.063C133.497 28.744 133.127 28.4933 132.705 28.311C132.284 28.1287 131.833 28.0376 131.355 28.0376C130.865 28.0376 130.404 28.1287 129.971 28.311C129.538 28.4933 129.162 28.744 128.843 29.063C128.524 29.382 128.273 29.758 128.091 30.1909C127.909 30.6125 127.817 31.0625 127.817 31.541V42ZM160.562 42H159.434L157.622 39.4878C157.178 39.8866 156.705 40.2625 156.204 40.6157C155.714 40.9575 155.195 41.2594 154.648 41.5215C154.102 41.7721 153.538 41.9715 152.957 42.1196C152.387 42.2677 151.806 42.3418 151.213 42.3418C149.926 42.3418 148.713 42.1253 147.573 41.6924C146.445 41.2594 145.454 40.6328 144.6 39.8125C143.757 38.9808 143.09 37.9668 142.6 36.7705C142.11 35.5742 141.865 34.2127 141.865 32.686C141.865 31.2619 142.11 29.9574 142.6 28.7725C143.09 27.5762 143.757 26.5508 144.6 25.6963C145.454 24.8418 146.445 24.181 147.573 23.7139C148.713 23.2354 149.926 22.9961 151.213 22.9961C151.806 22.9961 152.393 23.0701 152.974 23.2183C153.555 23.3664 154.119 23.5715 154.666 23.8335C155.212 24.0955 155.731 24.4032 156.221 24.7563C156.722 25.1095 157.189 25.4912 157.622 25.9014L159.434 23.731H160.562V42ZM155.862 32.686C155.862 32.048 155.736 31.4328 155.486 30.8403C155.247 30.2365 154.916 29.7067 154.495 29.251C154.073 28.7839 153.577 28.4136 153.008 28.1401C152.45 27.8553 151.851 27.7129 151.213 27.7129C150.575 27.7129 149.972 27.8211 149.402 28.0376C148.844 28.2541 148.354 28.5731 147.932 28.9946C147.522 29.4162 147.197 29.9403 146.958 30.5669C146.719 31.1821 146.599 31.8885 146.599 32.686C146.599 33.4836 146.719 34.1956 146.958 34.8223C147.197 35.4375 147.522 35.9559 147.932 36.3774C148.354 36.799 148.844 37.118 149.402 37.3345C149.972 37.5509 150.575 37.6592 151.213 37.6592C151.851 37.6592 152.45 37.5225 153.008 37.249C153.577 36.9642 154.073 36.5939 154.495 36.1382C154.916 35.6711 155.247 35.1413 155.486 34.5488C155.736 33.945 155.862 33.3241 155.862 32.686ZM169.636 18.7236C169.636 19.1566 169.551 19.561 169.38 19.937C169.22 20.313 168.998 20.6434 168.713 20.9282C168.429 21.2017 168.092 21.4238 167.705 21.5947C167.329 21.7542 166.925 21.834 166.492 21.834C166.059 21.834 165.649 21.7542 165.261 21.5947C164.885 21.4238 164.555 21.2017 164.27 20.9282C163.997 20.6434 163.774 20.313 163.604 19.937C163.444 19.561 163.364 19.1566 163.364 18.7236C163.364 18.3021 163.444 17.9033 163.604 17.5273C163.774 17.14 163.997 16.8096 164.27 16.5361C164.555 16.2513 164.885 16.0291 165.261 15.8696C165.649 15.6987 166.059 15.6133 166.492 15.6133C166.925 15.6133 167.329 15.6987 167.705 15.8696C168.092 16.0291 168.429 16.2513 168.713 16.5361C168.998 16.8096 169.22 17.14 169.38 17.5273C169.551 17.9033 169.636 18.3021 169.636 18.7236ZM168.833 42H164.133V23.6968H168.833V42ZM177.07 42H172.405V23.6968H173.533L175.071 25.4741C175.823 24.7905 176.672 24.2664 177.617 23.9019C178.574 23.5259 179.571 23.3379 180.608 23.3379C181.724 23.3379 182.778 23.5544 183.77 23.9873C184.761 24.4089 185.627 24.9956 186.367 25.7476C187.108 26.4881 187.689 27.3597 188.11 28.3623C188.543 29.3535 188.76 30.4131 188.76 31.541V42H184.094V31.541C184.094 31.0625 184.003 30.6125 183.821 30.1909C183.639 29.758 183.388 29.382 183.069 29.063C182.75 28.744 182.38 28.4933 181.958 28.311C181.536 28.1287 181.086 28.0376 180.608 28.0376C180.118 28.0376 179.657 28.1287 179.224 28.311C178.791 28.4933 178.415 28.744 178.096 29.063C177.777 29.382 177.526 29.758 177.344 30.1909C177.161 30.6125 177.07 31.0625 177.07 31.541V42Z" fill="white"/>
<defs>
<filter id="filter0_b_437_221" x="-4" y="-4" width="48.002" height="72.0127" filterUnits="userSpaceOnUse" color-interpolation-filters="sRGB">
<feFlood flood-opacity="0" result="BackgroundImageFix"/>
<feGaussianBlur in="BackgroundImageFix" stdDeviation="2"/>
<feComposite in2="SourceAlpha" operator="in" result="effect1_backgroundBlur_437_221"/>
<feBlend mode="normal" in="SourceGraphic" in2="effect1_backgroundBlur_437_221" result="shape"/>
</filter>
<linearGradient id="paint0_linear_437_221" x1="32" y1="7" x2="14.5" y2="53" gradientUnits="userSpaceOnUse">
<stop stop-color="#DAD446"/>
<stop offset="1" stop-color="#888306"/>
</linearGradient>
<linearGradient id="paint1_linear_437_221" x1="24" y1="22" x2="24" y2="42" gradientUnits="userSpaceOnUse">
<stop stop-color="#DAD446"/>
<stop offset="1" stop-color="#888306"/>
</linearGradient>
</defs>
</svg>
