<svg width="46" height="39" viewBox="0 0 46 39" fill="none" xmlns="http://www.w3.org/2000/svg">
<path d="M46 4.99862C44.2894 5.76154 42.4666 6.26723 40.5662 6.51277C42.5212 5.326 44.0134 3.46108 44.7149 1.21323C42.8921 2.31815 40.8796 3.09862 38.7349 3.53415C37.0041 1.66046 34.5374 0.5 31.8464 0.5C26.6254 0.5 22.4221 4.80862 22.4221 10.0906C22.4221 10.8506 22.4854 11.5814 22.6406 12.2771C14.8005 11.8883 7.86312 8.06785 3.20275 2.248C2.38912 3.68323 1.91188 5.326 1.91188 7.09446C1.91188 10.4151 3.59375 13.3586 6.10075 15.0628C4.58562 15.0335 3.09925 14.5863 1.84 13.8818C1.84 13.9111 1.84 13.9491 1.84 13.9871C1.84 18.6465 5.10887 22.5166 9.3955 23.4082C8.62787 23.6215 7.79125 23.7238 6.923 23.7238C6.31925 23.7238 5.70975 23.6888 5.13762 23.5602C6.3595 27.3572 9.82675 30.1488 13.9495 30.2394C10.741 32.7912 6.66713 34.3288 2.25688 34.3288C1.4835 34.3288 0.74175 34.2937 0 34.1972C4.17737 36.9362 9.12813 38.5 14.467 38.5C31.8205 38.5 41.308 23.8846 41.308 11.216C41.308 10.7922 41.2936 10.3829 41.2735 9.97662C43.1451 8.62615 44.7178 6.93954 46 4.99862Z" fill="white"/>
</svg>
